<svg width="340" height="128" xmlns="http://www.w3.org/2000/svg" preserveAspectRatio="xMidYMid meet">
    <g>
        <rect stroke="null" id="svg_13" class="background" fill="#000000" height="131.000009" width="343.000007" y="0.000001" x="0"/>
        <g id="svg_15" class="iconlettersvg-g iconlettersvg" fill="#000">
            <g id="svg_16">
                <g id="svg_17" class="tp-name">
                    <g id="svg_18" transform="translate(8.01025390625,82.48430633544922) scale(2.0399999618530273) ">
                        <g id="svg_19">
                            <g id="svg_20" class="name-imagesvg">
                                <g id="svg_21">
                                    <rect id="svg_22" class="image-rect" height="34.352392" width="24.928894" y="-28.431374" x="0" stroke-width="2" fill-opacity="0" fill="#333"/>
                                    <svg id="svg_23" class="image-svg-svg primary" height="34.352392" width="24.928894" y="-28.431374" x="0">
                                        <svg id="svg_24" viewBox="0 0 21.56 29.71">
                                            <path id="svg_25" fill="#f08200" d="m21.56,9.3l0,-9.3l-9.29,0s9.29,0 9.29,9.3z"/>
                                            <path id="svg_26" fill="#FEFFFF" d="m9.12,14.86c-2.51,0 -2.46,-3.33 -2.46,-7.43s-0.05,-7.43 2.46,-7.43c-5.03,0 -9.12,3.33 -9.12,7.43s4.09,7.43 9.12,7.43zm3.32,-0.01c2.52,0 2.47,3.33 2.47,7.43s0.05,7.43 -2.47,7.43c5,0 9.12,-3.33 9.12,-7.43s-4.08,-7.43 -9.12,-7.43zm-12.44,5.57l0,9.29l9.3,0s-9.3,0.05 -9.3,-9.29z"/>
                                        </svg>
                                    </svg>
                                    <!---->
                                </g>
                            </g>
                        </g>
                        <g id="svg_27">
                            <g id="svg_28" class="name-imagesvg">
                                <g id="svg_29">
                                    <rect id="svg_30" class="image-rect" height="34.352392" width="27.033281" y="-28.431374" x="22.928894" stroke-width="2" fill-opacity="0" fill="#333"/>
                                    <svg id="svg_31" class="image-svg-svg primary" height="34.352392" width="27.033281" y="-28.431374" x="22.928894">
                                        <svg id="svg_32" viewBox="0 0 23.38 29.71">
                                            <path id="svg_33" fill="#FEFFFF" d="m14.89,15c-0.66,0 -5.59,-0.35 -5.59,-5.67l0,-9.33l-9.3,0a11.42,11.42 0 0 1 1.75,0.19a1.8,1.8 0 0 1 1.48,1.92l0,25.49a1.81,1.81 0 0 1 -1.5,1.92a11.17,11.17 0 0 1 -1.73,0.19l9.3,0l0,-9.06c0,-5.65 5.7,-5.65 5.7,-5.65l-0.11,0z"/>
                                            <path id="svg_34" fill="#0081cc" d="m23.38,9.3l0,-9.3l-9.3,0s9.3,0 9.3,9.3zm0,11.12l0,9.29l-9.3,0s9.3,0.05 9.3,-9.29z"/>
                                        </svg>
                                    </svg>
                                    <!---->
                                </g>
                            </g>
                        </g>
                        <g id="svg_35">
                            <g id="svg_36" class="name-imagesvg">
                                <g id="svg_37">
                                    <rect id="svg_38" class="image-rect" height="34.352392" width="30.363305" y="-28.431374" x="47.962173" stroke-width="2" fill-opacity="0" fill="#333"/>
                                    <svg id="svg_39" class="image-svg-svg primary" height="34.352392" width="30.363305" y="-28.431374" x="47.962173">
                                        <svg id="svg_40" viewBox="0 0 26.26 29.71">
                                            <path id="svg_41" fill="#FEFFFF" d="m17.13,0.14c2.47,0 2.47,3.32 2.47,7.43s0,7.43 -2.47,7.43c5,0 9.13,-3.33 9.13,-7.43s-4.13,-7.43 -9.13,-7.43zm-7.83,9.18l0,-9.32l-9.3,0a11.42,11.42 0 0 1 1.75,0.19a1.8,1.8 0 0 1 1.48,1.92l0,25.49a1.81,1.81 0 0 1 -1.5,1.92a11.17,11.17 0 0 1 -1.73,0.19l9.3,0l0,-9c0,-5.71 5.7,-5.71 5.7,-5.71l-0.1,0c-0.67,0 -5.6,-0.35 -5.6,-5.68z"/>
                                            <path id="svg_42" fill="#0081cc" d="m17,20.42l7.68,9.29l-11.33,0s9.3,0 3.65,-9.29z"/>
                                        </svg>
                                    </svg>
                                    <!---->
                                </g>
                            </g>
                        </g>
                        <g id="svg_43">
                            <g id="svg_44" class="name-imagesvg">
                                <g id="svg_45">
                                    <rect id="svg_46" class="image-rect" height="34.352392" width="29.091424" y="-28.431374" x="76.325478" stroke-width="2" fill-opacity="0" fill="#333"/>
                                    <svg id="svg_47" class="image-svg-svg primary" height="34.352392" width="29.091424" y="-28.431374" x="76.325478">
                                        <svg id="svg_48" viewBox="0 0 25.16 29.71">
                                            <path id="svg_49" fill="#FEFFFF" d="m15.9,21.88l-3.32,7.83l-12.58,-29.71l6.58,0l9.32,21.88z"/>
                                            <path id="svg_50" fill="#0081cc" d="m15.36,0l9.8,0l-3.93,9.28s1.77,-9.28 -5.87,-9.28z"/>
                                        </svg>
                                    </svg>
                                    <!---->
                                </g>
                            </g>
                        </g>
                        <g id="svg_51">
                            <g id="svg_52" class="name-imagesvg">
                                <g id="svg_53">
                                    <rect id="svg_54" class="image-rect" height="34.352392" width="27.033281" y="-28.431374" x="103.416901" stroke-width="2" fill-opacity="0" fill="#333"/>
                                    <svg id="svg_55" class="image-svg-svg primary" height="34.352392" width="27.033281" y="-28.431374" x="103.416901">
                                        <svg id="svg_56" viewBox="0 0 23.38 29.71">
                                            <path id="svg_57" fill="#FEFFFF" d="m14.89,15c-0.66,0 -5.59,-0.35 -5.59,-5.67l0,-9.33l-9.3,0a11.42,11.42 0 0 1 1.75,0.19a1.8,1.8 0 0 1 1.48,1.92l0,25.49a1.81,1.81 0 0 1 -1.5,1.92a11.17,11.17 0 0 1 -1.73,0.19l9.3,0l0,-9.06c0,-5.65 5.7,-5.65 5.7,-5.65l-0.11,0z"/>
                                            <path id="svg_58" fill="#0081cc" d="m23.38,9.3l0,-9.3l-9.3,0s9.3,0 9.3,9.3zm0,11.12l0,9.29l-9.3,0s9.3,0.05 9.3,-9.29z"/>
                                        </svg>
                                    </svg>
                                    <!---->
                                </g>
                            </g>
                        </g>
                        <g id="svg_59">
                            <g id="svg_60" class="name-imagesvg">
                                <g id="svg_61">
                                    <rect id="svg_62" class="image-rect" height="34.352392" width="30.363305" y="-28.431374" x="128.45018" stroke-width="2" fill-opacity="0" fill="#333"/>
                                    <svg id="svg_63" class="image-svg-svg primary" height="34.352392" width="30.363305" y="-28.431374" x="128.45018">
                                        <svg id="svg_64" viewBox="0 0 26.26 29.71">
                                            <path id="svg_65" fill="#FEFFFF" d="m17.13,0.14c2.47,0 2.47,3.32 2.47,7.43s0,7.43 -2.47,7.43c5,0 9.13,-3.33 9.13,-7.43s-4.13,-7.43 -9.13,-7.43zm-7.83,9.18l0,-9.32l-9.3,0a11.42,11.42 0 0 1 1.75,0.19a1.8,1.8 0 0 1 1.48,1.92l0,25.49a1.81,1.81 0 0 1 -1.5,1.92a11.17,11.17 0 0 1 -1.73,0.19l9.3,0l0,-9c0,-5.71 5.7,-5.71 5.7,-5.71l-0.1,0c-0.67,0 -5.6,-0.35 -5.6,-5.68z"/>
                                            <path id="svg_66" fill="#0081cc" d="m17,20.42l7.68,9.29l-11.33,0s9.3,0 3.65,-9.29z"/>
                                        </svg>
                                    </svg>
                                    <!---->
                                </g>
                            </g>
                        </g>
                    </g>
                </g>
            </g>
            <g id="svg_67" fill="#FEFFFF" class="tp-slogan">
                <rect id="svg_68" width="124.409746" y="104.538187" height="1" x="13.010254"/>
                <rect id="svg_69" x="202.58" width="124.409746" y="104.538187" height="1"/>
                <g id="svg_70">
                    <g id="svg_71" transform="translate(8.01025390625,82.48430633544922) scale(1) ">
                        <path id="svg_72" d="m140.705994,18.31138l0,8.58l-1.12,0l0,-5.06q0,-0.71 0,-2.16l0,0l-2.44,7.22l-1.17,0l-2.39,-7.22l-0.05,0q0,0.52 0.05,1.55l0,0q0,0.51 0,0.61l0,0l0,5.06l-1.18,0l0,-8.58l1.69,0l2.49,7.27l2.43,-7.27l1.69,0zm7.36,8.58l-0.84,-2.48l-3.47,0l-0.89,2.48l-1.17,0l3.23,-8.58l1.31,0l3.1,8.58l-1.27,0zm-2.58,-7.31l-1.36,3.79l2.67,0l-1.26,-3.79l-0.05,0zm6.28,-1.27l4.32,6.94l0,-6.94l1.12,0l0,8.58l-1.31,0l-4.36,-6.94l-0.05,0l0,6.94l-1.12,0l0,-8.58l1.4,0zm12.89,8.58l-0.84,-2.48l-3.47,0l-0.89,2.48l-1.17,0l3.23,-8.58l1.32,0l3.09,8.58l-1.27,0zm-2.57,-7.31l-1.36,3.79l2.67,0l-1.27,-3.79l-0.04,0zm11.29,3.7l-2.62,0l0,-0.98l3.75,0l0,4.59l-0.75,0l-0.28,-1.08q-0.99,1.17 -2.82,1.22l0,0q-1.73,0 -2.67,-0.89l0,0q-1.4,-1.31 -1.36,-3.61l0,0q0.33,-4.27 4.08,-4.45l0,0q3.19,0.18 3.66,2.81l0,0l-1.13,0q-0.47,-1.78 -2.58,-1.83l0,0q-2.67,0.19 -2.81,3.52l0,0q0,3.56 2.86,3.56l0,0q1.03,0 1.78,-0.56l0,0q0.94,-0.75 0.89,-2.3l0,0zm4.22,2.58l5.16,0l0,1.03l-6.33,0l0,-8.58l6.23,0l0,0.99l-5.06,0l0,2.67l4.69,0l0,1.03l-4.69,0l0,2.86zm10.78,-2.67l-2.81,0l0,3.7l-1.17,0l0,-8.58l3.98,0q2.86,0 2.86,2.3l0,0q0,1.4 -1.22,2.06l0,0q1.03,0.28 1.03,1.64l0,0l0.1,1.55q-0.05,0.65 0.42,0.84l0,0l0,0.19l-1.45,0q-0.14,-0.61 -0.19,-2.16l0,0q0.05,-1.54 -1.55,-1.54l0,0zm0.1,-3.94l-2.91,0l0,2.95l2.72,0q1.73,0 1.73,-1.5l0,0q0,-1.45 -1.54,-1.45l0,0z"/>
                    </g>
                </g>
            </g>
        </g>
    </g>
</svg>